<?xml version="1.0" encoding="UTF-8" standalone="no"?>
<svg
   xmlns:dc="http://purl.org/dc/elements/1.1/"
   xmlns:cc="http://creativecommons.org/ns#"
   xmlns:rdf="http://www.w3.org/1999/02/22-rdf-syntax-ns#"
   xmlns:svg="http://www.w3.org/2000/svg"
   xmlns="http://www.w3.org/2000/svg"
   xmlns:sodipodi="http://sodipodi.sourceforge.net/DTD/sodipodi-0.dtd"
   xmlns:inkscape="http://www.inkscape.org/namespaces/inkscape"
   inkscape:version="1.0 (4035a4fb49, 2020-05-01)"
   sodipodi:docname="clockCal.svg"
   id="svg849"
   version="1.1"
   width="24"
   viewBox="0 0 24 24"
   height="24">
  <metadata
     id="metadata855">
    <rdf:RDF>
      <cc:Work
         rdf:about="">
        <dc:format>image/svg+xml</dc:format>
        <dc:type
           rdf:resource="http://purl.org/dc/dcmitype/StillImage" />
        <dc:title></dc:title>
      </cc:Work>
    </rdf:RDF>
  </metadata>
  <defs
     id="defs853" />
  <sodipodi:namedview
     inkscape:current-layer="svg849"
     inkscape:window-maximized="1"
     inkscape:window-y="-9"
     inkscape:window-x="-9"
     inkscape:cy="12"
     inkscape:cx="12"
     inkscape:zoom="34.583333"
     showgrid="false"
     id="namedview851"
     inkscape:window-height="1001"
     inkscape:window-width="1920"
     inkscape:pageshadow="2"
     inkscape:pageopacity="0"
     guidetolerance="10"
     gridtolerance="10"
     objecttolerance="10"
     borderopacity="1"
     bordercolor="#666666"
     pagecolor="#ffffff" />
  <path
     id="path845"
     fill="none"
     d="M0 0h24v24H0z" />
  <path
     style="fill:#e0eff5;fill-opacity:1"
     id="path847"
     d="m 14.433735,14.860241 h -10 v 2 h 10 z m 6,-8 h -16 v 2 h 16 z m -16,6 h 16 v -2 h -16 z m 0,-10 v 2 h 16 v -2 z" />
  <g
     transform="matrix(0.38883981,0,0,0.42024097,13.280151,10.499277)"
     id="g2076"
     style="fill:#e0eff5;fill-opacity:1">
    <path
       d="M 12,2 C 6.5,2 2,6.5 2,12 2,17.5 6.5,22 12,22 17.5,22 22,17.5 22,12 22,6.5 17.5,2 12,2 Z m 3.55,13.8 -4.08,-2.51 c -0.3,-0.18 -0.48,-0.5 -0.48,-0.85 V 7.75 C 11,7.34 11.34,7 11.75,7 12.16,7 12.5,7.34 12.5,7.75 v 4.45 l 3.84,2.31 c 0.36,0.22 0.48,0.69 0.26,1.05 -0.22,0.35 -0.69,0.46 -1.05,0.24 z"
       id="path2074"
       style="fill:#e0eff5;fill-opacity:1" />
  </g>
</svg>
